<svg xmlns="http://www.w3.org/2000/svg" width="23.482" height="17.046" viewBox="0 0 23.482 17.046">
  <g id="briefcase-frontal-view" transform="translate(0 -48.823)">
    <g id="Layer_8_4_" transform="translate(0 48.823)">
      <path id="Path_24" data-name="Path 24" d="M6.131,56.024v.665H16.609v-.665h2.712v.665H21.11a2.366,2.366,0,0,0,2.373-1.807V50.956H15.655V49.23a.428.428,0,0,0-.446-.407H8.323a.428.428,0,0,0-.446.407v1.726H0v4.275a2.413,2.413,0,0,0,2.269,1.457h1.15v-.665Zm2.638-6.388h5.994v1.32H8.769Zm10.552,9.3V57.231H21.11a3.111,3.111,0,0,0,2.373-1.063v9.7H0V56.283a3.127,3.127,0,0,0,2.269.948h1.15v1.708H6.131V57.231H16.609v1.708Z" transform="translate(0 -48.823)" fill="#535353"/>
    </g>
  </g>
</svg>
