<svg xmlns="http://www.w3.org/2000/svg" width="21.661" height="16.5" viewBox="0 0 21.661 16.5">
  <g id="email_4_" data-name="email (4)" transform="translate(0 -61)">
    <g id="Group_11" data-name="Group 11" transform="translate(1.088 61)">
      <g id="Group_10" data-name="Group 10" transform="translate(0 0)">
        <path id="Path_35" data-name="Path 35" d="M44.39,61H26.537a1.882,1.882,0,0,0-.816.191l9.7,9.7L37.6,68.8h0l7.611-7.61A1.882,1.882,0,0,0,44.39,61Z" transform="translate(-25.721 -61)" fill="#fff"/>
      </g>
    </g>
    <g id="Group_13" data-name="Group 13" transform="translate(14.309 62.088)">
      <g id="Group_12" data-name="Group 12" transform="translate(0 0)">
        <path id="Path_36" data-name="Path 36" d="M345.375,86.728l-7.162,7.162,7.162,7.162a1.882,1.882,0,0,0,.191-.816V87.543A1.882,1.882,0,0,0,345.375,86.728Z" transform="translate(-338.213 -86.728)" fill="#fff"/>
      </g>
    </g>
    <g id="Group_15" data-name="Group 15" transform="translate(0 62.088)">
      <g id="Group_14" data-name="Group 14" transform="translate(0 0)">
        <path id="Path_37" data-name="Path 37" d="M.191,86.721A1.882,1.882,0,0,0,0,87.537v12.692a1.882,1.882,0,0,0,.191.815l7.162-7.162Z" transform="translate(0 -86.721)" fill="#fff"/>
      </g>
    </g>
    <g id="Group_17" data-name="Group 17" transform="translate(1.088 70.147)">
      <g id="Group_16" data-name="Group 16">
        <path id="Path_38" data-name="Path 38" d="M38.038,277.211l-2.174,2.09a.634.634,0,0,1-.9,0l-2.09-2.09-7.162,7.162a1.882,1.882,0,0,0,.816.191H44.384a1.882,1.882,0,0,0,.816-.191Z" transform="translate(-25.714 -277.211)" fill="#fff"/>
      </g>
    </g>
  </g>
</svg>
