<?xml version="1.0" encoding="iso-8859-1"?>
<!-- Uploaded to: SVG Repo, www.svgrepo.com, Transformed by: SVG Repo Mixer Tools -->
<!DOCTYPE svg PUBLIC "-//W3C//DTD SVG 1.1//EN" "http://www.w3.org/Graphics/SVG/1.1/DTD/svg11.dtd">
<svg fill="#b8c1cc" version="1.1" id="Capa_1" xmlns="http://www.w3.org/2000/svg" xmlns:xlink="http://www.w3.org/1999/xlink" 
	 width="800px" height="800px" viewBox="0 0 31.361 31.361"
	 xml:space="preserve">
<g>
	<path d="M24.19,20.51l1.063-0.891l-1.414-1.684c0.812-1.471,1.277-3.157,1.277-4.952c0-1.453-0.309-2.836-0.854-4.09l0.562-0.176
		v-6.67h2.184v4.73h-1.092v4.003h3.396V6.778h-0.729v-4.73h1.336V0h-29.6v2.048h4.489v6.671l0.61,0.18
		c-0.546,1.254-0.853,2.634-0.853,4.086c0,5.666,4.609,10.273,10.274,10.273c1.212,0,2.371-0.221,3.451-0.607l1.381,1.646
		l1.313-1.103l6.851,8.168l3.201-2.686L24.19,20.51z M14.843,18.968c-3.298,0-5.982-2.685-5.982-5.983
		c0-1.035,0.265-2.009,0.729-2.859l5.532,1.627l5.005-1.564c0.443,0.836,0.697,1.788,0.697,2.797
		C20.824,16.283,18.141,18.968,14.843,18.968z"/>
</g>
</svg>
