<svg xmlns="http://www.w3.org/2000/svg" width="144.988" height="96.338" viewBox="0 0 144.988 96.338">
  <g id="handshake" transform="translate(0 -84.921)">
    <path id="Path_8" data-name="Path 8" d="M120.523,310.057a4.259,4.259,0,0,0,.387-6.008l-.234-.269a4.227,4.227,0,0,0-2.92-1.426h-.283a4.228,4.228,0,0,0-2.8,1.058l-5.706,5.009-5.2,4.561a4.265,4.265,0,0,0-.385,6.006l.238.273a4.263,4.263,0,0,0,6.01.387l3.995-3.505Z" transform="translate(-73.013 -155.15)" fill="#153055"/>
    <path id="Path_9" data-name="Path 9" d="M104.275,319.1c-.118,0-.234,0-.353-.01a5.24,5.24,0,0,1-3.622-1.781l-.241-.275a5.287,5.287,0,0,1,.479-7.439l10.907-9.579a5.3,5.3,0,0,1,3.823-1.3,5.239,5.239,0,0,1,3.622,1.781l.334.389a5.27,5.27,0,0,1-.575,7.326l-10.9,9.579a5.224,5.224,0,0,1-3.473,1.308Zm10.646-18.342a3.239,3.239,0,0,0-2.132.815l-10.9,9.579a3.246,3.246,0,0,0-.291,4.569l.241.275a3.243,3.243,0,0,0,4.569.291l10.9-9.579a3.238,3.238,0,0,0,.294-4.567l-.238-.275a3.207,3.207,0,0,0-2.219-1.09Z" transform="translate(-70.466 -152.544)" fill="#153055"/>
    <path id="Path_10" data-name="Path 10" d="M194.662,366.414a4.242,4.242,0,0,0-2.806,1.056l-5.627,4.94a4.26,4.26,0,1,0,5.619,6.4l5.627-4.94a4.257,4.257,0,0,0-2.812-7.459Z" transform="translate(-131.849 -200.86)" fill="#153055"/>
    <path id="Path_11" data-name="Path 11" d="M186.5,378.5a5.276,5.276,0,0,1-3.487-9.244l5.629-4.94a5.437,5.437,0,0,1,7.449.485,5.28,5.28,0,0,1-.485,7.451l-5.627,4.94A5.251,5.251,0,0,1,186.5,378.5Zm5.621-13.45a3.229,3.229,0,0,0-2.142.791l-5.629,4.94a3.243,3.243,0,0,0,4.28,4.873l5.629-4.934a3.238,3.238,0,0,0-2.14-5.674Z" transform="translate(-129.306 -198.469)" fill="#153055"/>
    <path id="Path_12" data-name="Path 12" d="M15.5,93.793,4.062,143.707l9.147,5.14,23.669-38.5Z" transform="translate(-2.898 -6.331)" fill="#153055"/>
    <path id="Path_13" data-name="Path 13" d="M10.665,145.773,0,139.781,11.965,87.568l23.36,18.087ZM2.327,138.75l7.628,4.28,22.679-36.888L13.241,91.134Z" transform="translate(0 -1.889)" fill="#153055"/>
    <path id="Path_14" data-name="Path 14" d="M84.836,290.244a4.261,4.261,0,0,0,.391-6.012l-.073-.084a4.227,4.227,0,0,0-2.922-1.439h-.283a4.228,4.228,0,0,0-2.8,1.058l-6.834,5.984a4.316,4.316,0,0,0,5.639,6.534l.056-.048.518-.455,5.2-4.565Z" transform="translate(-50.563 -141.133)" fill="#153055"/>
    <path id="Path_15" data-name="Path 15" d="M72.725,295.772a3.723,3.723,0,0,1-.4-.014,5.418,5.418,0,0,1-3.681-1.856,5.278,5.278,0,0,1,.483-7.449l6.825-5.99a5.334,5.334,0,0,1,7.037,8.017l-6.823,5.99A5.185,5.185,0,0,1,72.725,295.772Zm6.707-14.584A3.229,3.229,0,0,0,77.3,282l-6.825,5.99a3.24,3.24,0,0,0-.3,4.573h0a3.388,3.388,0,0,0,2.3,1.17,3.165,3.165,0,0,0,2.346-.787l6.823-5.99a3.242,3.242,0,0,0,.3-4.573,3.282,3.282,0,0,0-2.3-1.18Z" transform="translate(-48.047 -138.594)" fill="#153055"/>
    <path id="Path_16" data-name="Path 16" d="M158.053,339.223a4.229,4.229,0,0,0-1.05-3.088l-.061-.069a4.225,4.225,0,0,0-2.916-1.426h-.283a4.226,4.226,0,0,0-2.8,1.058l-.669.587-6.9,6.061-1.834,1.6a4.324,4.324,0,0,0,2.592,7.52,4.215,4.215,0,0,0,3.088-1.049l9.4-8.252A4.233,4.233,0,0,0,158.053,339.223Z" transform="translate(-99.974 -178.188)" fill="#153055"/>
    <path id="Path_17" data-name="Path 17" d="M141.806,349.89c-.116,0-.23,0-.346-.01a5.325,5.325,0,0,1-3.2-9.3l9.393-8.262a5.325,5.325,0,0,1,3.823-1.3,5.231,5.231,0,0,1,3.618,1.777,5.277,5.277,0,0,1-.41,7.52l-9.4,8.252A5.241,5.241,0,0,1,141.806,349.89Zm6.522-15.45L139.6,342.1a3.246,3.246,0,0,0-.306,4.575,3.287,3.287,0,0,0,2.285,1.164,3.207,3.207,0,0,0,2.356-.8l9.4-8.252a3.238,3.238,0,0,0,.3-4.57l0,0a3.262,3.262,0,0,0-2.287-1.166h-.216a3.194,3.194,0,0,0-2.132.815Z" transform="translate(-97.374 -175.593)" fill="#153055"/>
    <path id="Path_18" data-name="Path 18" d="M155.31,201.416,122.143,174.39c-12.7,6.744-21.694,3.273-25.995.528a4.846,4.846,0,0,1,.408-8.356l11.054-5.871c-.285-.043-.565-.079-.815-.1a213.911,213.911,0,0,1-30.148,2.6l-19.324,31.43,4.308,3.283L66.7,193.45a8.472,8.472,0,0,1,11.956.777h0l.073.084a8.4,8.4,0,0,1,1.948,4.1,8.307,8.307,0,0,1,5.234-1.427,8.414,8.414,0,0,1,5.816,2.865l.238.273a8.414,8.414,0,0,1,2.085,6.134v.012a8.546,8.546,0,0,1,1.168-.039,8.417,8.417,0,0,1,5.816,2.865l-1.522,1.459,1.583-1.39a8.418,8.418,0,0,1,2.089,6.138c0,.029-.012.055-.014.084a8.391,8.391,0,0,1,7.6,13.043l9.087,5.244a4.21,4.21,0,0,0,5.694-1.508,4.129,4.129,0,0,0-1.237-5.521l-14.47-10.027c-.012,0-.018-.022-.029-.031l-.974-.675a2.107,2.107,0,0,1,2.4-3.465l20.409,14.138a4.147,4.147,0,0,0,5.771-1.046l0,0A4.164,4.164,0,0,0,136.4,219.8l-20.309-14.4c-.012,0-.016-.022-.029-.031a2.109,2.109,0,0,1,2.446-3.436l22.768,16.153a4.414,4.414,0,0,0,5.254-7.092l-24.5-17.653a2.107,2.107,0,1,1,2.339-3.506c.036.024.072.05.107.076l1.675,1.194h.022l22.705,16.359c.043.031.073.069.114.1l.375.269a1.969,1.969,0,0,1,.2.161l.408.279a4.39,4.39,0,0,0,5.986-.828,4.321,4.321,0,0,0,.756-3.9,4.221,4.221,0,0,0-1.413-2.118Z" transform="translate(-40.903 -53.992)" fill="#153055"/>
    <path id="Path_19" data-name="Path 19" d="M118.551,232.675a5.128,5.128,0,0,1-2.566-.687L105.952,226.2l.611-.9a7.423,7.423,0,0,0-5.721-11.509,5.036,5.036,0,0,0-.758.02l-1.368.086.079-1.16a7.443,7.443,0,0,0-1.2-4.669l-.764.673-1.378-1.5.775-.742a7.4,7.4,0,0,0-4.43-1.834,6.849,6.849,0,0,0-.891.029l-1.095.082-.137-1.207v-.043a7.441,7.441,0,0,0-1.834-5.313l-.241-.275a7.38,7.38,0,0,0-9.713-1.255l-1.3.872-.273-1.541a7.482,7.482,0,0,0-12.3-4.375l-5.692,5L52.6,192.291,72.7,159.6l.548-.016a213.623,213.623,0,0,0,29.985-2.578l.143-.029.145.012c.269.024.567.065.874.11l3.057.459-13.785,7.32a3.827,3.827,0,0,0-.332,6.607c4.046,2.582,12.678,5.947,24.963-.573l.6-.318,33.688,27.45a5.246,5.246,0,0,1,1.738,2.635,5.328,5.328,0,0,1-.929,4.818A5.419,5.419,0,0,1,146,206.518l-1.143-.854-24.342-17.527a1.084,1.084,0,0,0-1.513.248l0,0a1.086,1.086,0,0,0,.249,1.516l0,0,24.5,17.667a5.433,5.433,0,0,1-6.44,8.749L114.544,200.18a1.09,1.09,0,1,0-1.264,1.775l20.343,14.439a5.166,5.166,0,0,1-5.926,8.463l0,0-20.4-14.14a1.088,1.088,0,0,0-1.3,1.748l.06.042,15.477,10.732a5.164,5.164,0,0,1-1.569,9.246,5.329,5.329,0,0,1-1.41.191Zm-9.746-7.184,8.2,4.732a3.147,3.147,0,0,0,3.367-5.3L108.805,216.9a9.426,9.426,0,0,1,1.019,4.946,9.181,9.181,0,0,1-1.019,3.646Zm-2.123-17a3.1,3.1,0,0,1,1.773.552l20.4,14.138a3.127,3.127,0,0,0,3.587-5.124l-20.454-14.523a3.126,3.126,0,0,1,3.732-5.013L138.5,214.672a3.4,3.4,0,0,0,4.041-5.454l-24.472-17.635A3.125,3.125,0,0,1,121.7,186.5l1.7,1.2,23.192,16.73a3,3,0,0,1,.3.245l.287.188a3.371,3.371,0,0,0,4.6-.611,3.31,3.31,0,0,0,.583-2.992,3.219,3.219,0,0,0-1.062-1.63l-32.651-26.6c-12.878,6.583-22.059,2.959-26.419.173a5.865,5.865,0,0,1,.487-10.125l6.249-3.318c-6.355.862-15.03,1.5-25.1,1.834L55.319,191.775l2.916,2.219,4.441-3.9a9.489,9.489,0,0,1,13.391.869l0,0a9.618,9.618,0,0,1,1.912,3.308,9.188,9.188,0,0,1,4.644-.9,9.43,9.43,0,0,1,6.522,3.212l.241.275a9.409,9.409,0,0,1,2.342,5.753h.2a9.428,9.428,0,0,1,5.867,2.562l.033-.029.552.632.059.065.642.732-.029.029a9.4,9.4,0,0,1,1.8,5.146h.124a9.532,9.532,0,0,1,2.649.558,3.12,3.12,0,0,1,3.057-3.83Z" transform="translate(-37.535 -51.416)" fill="#153055"/>
    <path id="Path_20" data-name="Path 20" d="M408.914,91.146,387.544,107.7l19.769,32.154a2.011,2.011,0,0,1,.365.243,2.07,2.07,0,0,1,.579,1.292l2.961,4.816,9.138-5.142Z" transform="translate(-276.533 -4.442)" fill="#153055"/>
    <path id="Path_21" data-name="Path 21" d="M407.484,143.128l-3.6-5.853-.022-.236a1.059,1.059,0,0,0-.285-.669l-.391-.232-.12-.2L382.82,103.01l23.364-18.089,11.967,52.213Zm-1.63-6.534,2.335,3.8,7.628-4.28L404.908,88.486,385.516,103.5l19.157,31.159a1.875,1.875,0,0,1,.349.269,3.035,3.035,0,0,1,.838,1.665Z" transform="translate(-273.162 0)" fill="#153055"/>
    <path id="Path_22" data-name="Path 22" d="M248.139,160.254a18.782,18.782,0,0,1-13.023.473L223.9,157.085a6.113,6.113,0,0,0-4.675.408l-3.8,2.02c-.041.02-.075.045-.118.063l-15.069,8.005a.64.64,0,0,0-.363.554.579.579,0,0,0,.271.536c4.432,2.829,12.024,4.891,22.893-1.345a2.111,2.111,0,0,1,2.38.194l34.255,27.92a8.13,8.13,0,0,1,1.284,1.327l8.47-8.476-18.051-29.359Z" transform="translate(-142.616 -51.289)" fill="#153055"/>
    <path id="Path_23" data-name="Path 23" d="M258.347,195.776l-.709-.9a7,7,0,0,0-1.121-1.162L222.254,165.8a1.1,1.1,0,0,0-1.223-.1c-11.313,6.5-19.267,4.3-23.949,1.321a1.592,1.592,0,0,1-.74-1.447,1.65,1.65,0,0,1,.907-1.406l18.984-10.082a7.133,7.133,0,0,1,5.466-.481l11.215,3.636a17.765,17.765,0,0,0,12.32-.444l4.041-1.655L268.2,185.918Zm-36.788-32.258a3.139,3.139,0,0,1,1.979.7l34.257,27.92a7.759,7.759,0,0,1,.687.626l7.133-7.133L248.44,157.686l-2.429.995a19.8,19.8,0,0,1-13.73.5l-11.209-3.64a5.1,5.1,0,0,0-3.889.347l-18.409,9.782c4.266,2.478,11.282,3.988,21.242-1.732A3.122,3.122,0,0,1,221.559,163.518Z" transform="translate(-140.099 -48.774)" fill="#153055"/>
  </g>
</svg>
