<svg xmlns="http://www.w3.org/2000/svg" width="22.303" height="22.307" viewBox="0 0 22.303 22.307">
  <g id="instagram_6_" data-name="instagram (6)" transform="translate(-0.449)">
    <path id="Path_2" data-name="Path 2" d="M22.7,6.558a8.151,8.151,0,0,0-.518-2.706A5.714,5.714,0,0,0,18.913.588,8.172,8.172,0,0,0,16.207.07C15.013.013,14.633,0,11.6,0S8.2.013,7.008.065A8.153,8.153,0,0,0,4.3.584a5.443,5.443,0,0,0-1.978,1.29A5.492,5.492,0,0,0,1.038,3.848,8.173,8.173,0,0,0,.519,6.554c-.057,1.194-.07,1.573-.07,4.6s.013,3.408.065,4.6a8.15,8.15,0,0,0,.519,2.706A5.713,5.713,0,0,0,4.3,21.723,8.173,8.173,0,0,0,7,22.242c1.19.052,1.569.065,4.6.065s3.408-.013,4.6-.065a8.149,8.149,0,0,0,2.706-.518,5.706,5.706,0,0,0,3.264-3.264,8.178,8.178,0,0,0,.518-2.706c.052-1.19.065-1.569.065-4.6S22.747,7.748,22.7,6.558Zm-2.009,9.108a6.114,6.114,0,0,1-.384,2.07,3.7,3.7,0,0,1-2.118,2.118,6.136,6.136,0,0,1-2.07.383c-1.177.052-1.529.065-4.506.065s-3.334-.013-4.506-.065a6.111,6.111,0,0,1-2.07-.383,3.433,3.433,0,0,1-1.281-.832A3.468,3.468,0,0,1,2.92,17.74a6.137,6.137,0,0,1-.383-2.07c-.052-1.177-.065-1.53-.065-4.506s.013-3.334.065-4.506a6.111,6.111,0,0,1,.383-2.07,3.391,3.391,0,0,1,.837-1.281,3.463,3.463,0,0,1,1.281-.832,6.14,6.14,0,0,1,2.07-.384c1.177-.052,1.53-.065,4.506-.065s3.334.013,4.506.065a6.114,6.114,0,0,1,2.07.384,3.43,3.43,0,0,1,1.281.832A3.467,3.467,0,0,1,20.3,4.589a6.139,6.139,0,0,1,.384,2.07c.052,1.177.065,1.529.065,4.506S20.739,14.489,20.686,15.666Zm0,0" transform="translate(0 0)" fill="#153055"/>
    <path id="Path_3" data-name="Path 3" d="M130.68,124.5a5.73,5.73,0,1,0,5.73,5.73A5.732,5.732,0,0,0,130.68,124.5Zm0,9.447a3.717,3.717,0,1,1,3.717-3.717A3.718,3.718,0,0,1,130.68,133.947Zm0,0" transform="translate(-119.075 -119.075)" fill="#153055"/>
    <path id="Path_4" data-name="Path 4" d="M365.125,89.939a1.338,1.338,0,1,1-1.338-1.338A1.338,1.338,0,0,1,365.125,89.939Zm0,0" transform="translate(-346.225 -84.741)" fill="#153055"/>
  </g>
</svg>
