<svg id="linkedin_1_" data-name="linkedin (1)" xmlns="http://www.w3.org/2000/svg" width="22.307" height="22.307" viewBox="0 0 22.307 22.307">
  <path id="Path_5" data-name="Path 5" d="M22.9,22.841h.006V14.659c0-4-.862-7.085-5.54-7.085a4.857,4.857,0,0,0-4.375,2.4h-.065V7.948H8.489V22.84h4.619V15.466c0-1.942.368-3.819,2.773-3.819,2.369,0,2.4,2.216,2.4,3.944v7.251Z" transform="translate(-0.599 -0.534)" fill="#153055"/>
  <path id="Path_6" data-name="Path 6" d="M.4,7.977H5.021V22.87H.4Z" transform="translate(-0.028 -0.563)" fill="#153055"/>
  <path id="Path_7" data-name="Path 7" d="M2.679,0A2.691,2.691,0,1,0,5.357,2.679,2.68,2.68,0,0,0,2.679,0Z" fill="#153055"/>
</svg>
