<?xml version="1.0"?>
<svg xmlns="http://www.w3.org/2000/svg" xmlns:xlink="http://www.w3.org/1999/xlink" xmlns:svgjs="http://svgjs.com/svgjs" version="1.1" width="512" height="512" x="0" y="0" viewBox="0 0 469.17 469.17" style="enable-background:new 0 0 512 512" xml:space="preserve" class=""><g>
<g xmlns="http://www.w3.org/2000/svg">
	<g>
		<path d="M110.185,266.152H75.537c9.851,19.344,27.199,34,48.328,40.313C118.705,296.285,113.529,282.77,110.185,266.152z" fill="#b8c1cc" data-original="#000000" style="" class=""/>
	</g>
</g>
<g xmlns="http://www.w3.org/2000/svg">
	<g>
		<path d="M126.529,266.152c4.524,20.342,11.993,34.945,17.727,43.766c0.793,0.023,1.531,0.234,2.328,0.234    c0.797,0,1.535-0.211,2.324-0.234c5.754-8.84,13.215-23.438,17.73-43.766H126.529z" fill="#b8c1cc" data-original="#000000" style="" class=""/>
	</g>
</g>
<g xmlns="http://www.w3.org/2000/svg">
	<g>
		<path d="M223.745,210.152h-38.289c0.667,6.336,1.128,12.926,1.128,20c0,7.078-0.477,13.66-1.152,20h38.313    c1.672-6.43,2.84-13.054,2.84-20C226.585,223.206,225.417,216.582,223.745,210.152z" fill="#b8c1cc" data-original="#000000" style="" class=""/>
	</g>
</g>
<g xmlns="http://www.w3.org/2000/svg">
	<g>
		<path d="M169.28,153.831c5.278,10.34,10.446,23.74,13.754,40.32h34.598C207.776,174.8,190.42,160.14,169.28,153.831z" fill="#b8c1cc" data-original="#000000" style="" class=""/>
	</g>
</g>
<g xmlns="http://www.w3.org/2000/svg">
	<g>
		<path d="M148.936,150.39c-0.801-0.023-1.547-0.238-2.351-0.238c-0.797,0-1.539,0.211-2.328,0.234    c-5.977,9.152-13.305,23.717-17.746,43.766h40.152C162.24,174.171,154.94,159.601,148.936,150.39z" fill="#b8c1cc" data-original="#000000" style="" class=""/>
	</g>
</g>
<g xmlns="http://www.w3.org/2000/svg">
	<g>
		<path d="M169.331,210.152h-45.488c-0.731,6.294-1.258,12.855-1.258,20c0,7.141,0.535,13.703,1.274,20h45.457    c0.734-6.297,1.27-12.858,1.27-20C170.585,223.007,170.057,216.447,169.331,210.152z" fill="#b8c1cc" data-original="#000000" style="" class=""/>
	</g>
</g>
<g xmlns="http://www.w3.org/2000/svg">
	<g>
		<path d="M75.538,194.151h34.61c3.312-16.587,8.484-30.003,13.742-40.32C102.748,160.144,85.393,174.8,75.538,194.151z" fill="#b8c1cc" data-original="#000000" style="" class=""/>
	</g>
</g>
<g xmlns="http://www.w3.org/2000/svg">
	<g>
		<path d="M106.584,230.152c0-7.074,0.465-13.664,1.133-20H69.424c-1.672,6.43-2.84,13.054-2.84,20s1.168,13.57,2.84,20h38.317    C107.061,243.812,106.584,237.23,106.584,230.152z" fill="#b8c1cc" data-original="#000000" style="" class=""/>
	</g>
</g>
<g xmlns="http://www.w3.org/2000/svg">
	<g>
		<path d="M182.986,266.151c-3.335,16.618-8.507,30.124-13.675,40.313c21.125-6.317,38.469-20.97,48.32-40.313H182.986z" fill="#b8c1cc" data-original="#000000" style="" class=""/>
	</g>
</g>
<g xmlns="http://www.w3.org/2000/svg">
	<g>
		<path d="M426.858,50.791L241.4,1.098c-17.07-4.574-34.617,5.557-39.191,22.627l-16.726,62.426h73.102    c9.879,0,18.602,4.571,24.469,11.606c6.086,1.63,17.473,4.681,27.918,7.479l52.672-49.11l14.746,3.952l-33.008,54.379    c9.687,2.596,19.574,5.244,26.054,6.982l20.012-11.762l9.832,2.634l-15.519,23.502l1.687,28.114l-9.832-2.634l-11.45-20.19    c-6.481-1.738-16.367-4.386-26.054-6.982l1.398,63.6l-14.746-3.952l-21.062-68.867c-5.145-1.378-10.278-2.754-15.117-4.05v192.435    l16.481-62.692l15.453,4.142l-31.934,121.491v29.925c0,17.673-14.328,32-32,32h-55.195l111.66,29.919    c17.07,4.574,34.617-5.556,39.191-22.627l51.793-193.287l-15.496-4.036l4.156-15.453l15.481,4.032l39.313-146.717    C454.061,72.913,443.928,55.366,426.858,50.791z M313.257,227.41l-15.453-4.141l4.156-15.453l15.453,4.141L313.257,227.41z     M332.85,216.105l15.469,4.141l-4.125,15.453l-15.469-4.141L332.85,216.105z M323.331,437.162l-15.453-4.141l45.55-170.003    l15.453,4.141L323.331,437.162z M375.084,243.98l-15.453-4.141l4.156-15.453l15.453,4.141L375.084,243.98z" fill="#b8c1cc" data-original="#000000" style="" class=""/>
	</g>
</g>
<g xmlns="http://www.w3.org/2000/svg">
	<g>
		<path d="M258.584,102.152h-240v320h240c8.824,0,16-7.178,16-16v-288C274.584,109.33,267.408,102.152,258.584,102.152z     M226.584,390.152h-160v-16h160V390.152z M146.584,326.152c-53.019,0-96-42.981-96-96c0-53.019,42.981-96,96-96    c53.019,0,96,42.981,96,96C242.584,283.171,199.604,326.152,146.584,326.152z" fill="#b8c1cc" data-original="#000000" style="" class=""/>
	</g>
</g>
<g xmlns="http://www.w3.org/2000/svg">
</g>
<g xmlns="http://www.w3.org/2000/svg">
</g>
<g xmlns="http://www.w3.org/2000/svg">
</g>
<g xmlns="http://www.w3.org/2000/svg">
</g>
<g xmlns="http://www.w3.org/2000/svg">
</g>
<g xmlns="http://www.w3.org/2000/svg">
</g>
<g xmlns="http://www.w3.org/2000/svg">
</g>
<g xmlns="http://www.w3.org/2000/svg">
</g>
<g xmlns="http://www.w3.org/2000/svg">
</g>
<g xmlns="http://www.w3.org/2000/svg">
</g>
<g xmlns="http://www.w3.org/2000/svg">
</g>
<g xmlns="http://www.w3.org/2000/svg">
</g>
<g xmlns="http://www.w3.org/2000/svg">
</g>
<g xmlns="http://www.w3.org/2000/svg">
</g>
<g xmlns="http://www.w3.org/2000/svg">
</g>
</g></svg>
