<svg id="recruitment" xmlns="http://www.w3.org/2000/svg" width="130.294" height="130.294" viewBox="0 0 130.294 130.294">
  <path id="Path_25" data-name="Path 25" d="M3.236,378.542,31.31,350.468a42.337,42.337,0,0,0,10.8,10.8L14.033,389.338a7.634,7.634,0,0,1-10.8-10.8Z" transform="translate(-0.746 -261.281)" fill="#153055"/>
  <path id="Path_26" data-name="Path 26" d="M35,12.724A12.724,12.724,0,1,1,47.724,25.448,12.738,12.738,0,0,1,35,12.724Z" transform="translate(-26.093)" fill="#153055"/>
  <path id="Path_27" data-name="Path 27" d="M377,12.724a12.724,12.724,0,1,1,12.724,12.724A12.738,12.738,0,0,1,377,12.724Z" transform="translate(-281.061)" fill="#153055"/>
  <path id="Path_28" data-name="Path 28" d="M201,316a14,14,0,0,1,27.993,0v5.924a34.327,34.327,0,0,1-27.993,0Z" transform="translate(-149.85 -225.147)" fill="#153055"/>
  <ellipse id="Ellipse_1" data-name="Ellipse 1" cx="8" cy="7" rx="8" ry="7" transform="translate(57 55)" fill="#153055"/>
  <path id="Path_29" data-name="Path 29" d="M349.965,421.169a20.293,20.293,0,0,0,27.343.009,21.6,21.6,0,0,1,7.953,16.743v2.545a3.817,3.817,0,0,1-3.817,3.817H345.817A3.817,3.817,0,0,1,342,440.466v-2.545A21.6,21.6,0,0,1,349.965,421.169Z" transform="translate(-254.968 -313.99)" fill="#153055"/>
  <path id="Path_30" data-name="Path 30" d="M390.059,312a12.724,12.724,0,1,1-12.61,14.4,41.816,41.816,0,0,0,8.43-13.7A12.669,12.669,0,0,1,390.059,312Z" transform="translate(-281.396 -232.602)" fill="#153055"/>
  <path id="Path_31" data-name="Path 31" d="M7.953,109.206a20.322,20.322,0,0,0,27.355,0,21.83,21.83,0,0,1,4.109,4.452,42.182,42.182,0,0,0-13.676,18.654H3.817A3.817,3.817,0,0,1,0,128.494v-2.545a21.6,21.6,0,0,1,7.953-16.743Z" transform="translate(0 -81.415)" fill="#153055"/>
  <path id="Path_32" data-name="Path 32" d="M357.106,113.658a21.816,21.816,0,0,1,4.109-4.452,20.322,20.322,0,0,0,27.355,0,21.6,21.6,0,0,1,7.953,16.743v2.545a3.817,3.817,0,0,1-3.817,3.817H370.782A42.18,42.18,0,0,0,357.106,113.658Z" transform="translate(-266.23 -81.415)" fill="#153055"/>
  <path id="Path_33" data-name="Path 33" d="M155.355,122a34.34,34.34,0,0,1,21.631,61.024V181.8a21.638,21.638,0,0,0-10.678-18.642,15.269,15.269,0,1,0-21.9,0A21.638,21.638,0,0,0,133.724,181.8v1.221A34.34,34.34,0,0,1,155.355,122Z" transform="translate(-90.208 -90.953)" fill="#153055"/>
</svg>
